# xmcd
#
# Track frame offsets: 
#        150
#        11074
#        22277
#        35386
#        44255
#        62610
#        75552
#        89515
#        99676
#        110884
#        121866
#        139991
#        153678
#        167166
#        182374
#        199934
#        211632
#        224271
#        240459
#        254832
#        265801
#
# Disc length: 3681 seconds
#
# Revision: 0
# Processed by: cddbd v1.5.2PL0 Copyright (c) Steve Scherf et al.
# Submitted via: ExactAudioCopyFreeDBPlugin 1.0
#
DISCID=310e5f15
DTITLE=Greenhorns - Rovnou, tady rovnou CD1
DYEAR=1974
DGENRE=Country
TTITLE0=Rovnou, tady rovnou
TTITLE1=Vem mě k vám
TTITLE2=Havárie staré sedmdesátky
TTITLE3=Bar, co má línej Harry
TTITLE4=Štěrk a sůl s pepřem
TTITLE5=Who pee li gi go
TTITLE6=Australskej koláč
TTITLE7=Džek Blesk
TTITLE8=Kabaléro
TTITLE9=Malá rybka
TTITLE10=Marion Lee
TTITLE11=Blízko Little Big Hornu
TTITLE12=Po řece
TTITLE13=Co dát své lásce
TTITLE14=Belle Star
TTITLE15=Domov mezi gumovníky
TTITLE16=Mám snad v očích slznej plyn
TTITLE17=Stezka ptačích stop
TTITLE18=Začni větře dout
TTITLE19=Eduard Kelly
TTITLE20=Rodeo
EXTD=
EXTT0=
EXTT1=
EXTT2=
EXTT3=
EXTT4=
EXTT5=
EXTT6=
EXTT7=
EXTT8=
EXTT9=
EXTT10=
EXTT11=
EXTT12=
EXTT13=
EXTT14=
EXTT15=
EXTT16=
EXTT17=
EXTT18=
EXTT19=
EXTT20=
PLAYORDER=
